<?xml version="1.0" encoding="utf-8"?>
<!-- Generator: Adobe Illustrator 27.5.0, SVG Export Plug-In . SVG Version: 6.00 Build 0)  -->
<svg version="1.1" xmlns="http://www.w3.org/2000/svg" xmlns:xlink="http://www.w3.org/1999/xlink" x="0px" y="0px"
	 viewBox="0 0 500 500" style="enable-background:new 0 0 500 500;" xml:space="preserve">
<g id="Background">
	<rect y="1" style="display:none;fill:#FFFFFF;" width="500" height="500"/>
	<rect style="fill:#FFFFFF;" width="500" height="500"/>
</g>
<g id="OBJECTS">
	<g>
		<g>
			<path style="fill:#BFD8E2;" d="M320.553,186.868c34.705-6.997,45.936-16.65,45.936-16.65c-5.159-0.58-42.191,7.413-42.191,7.413
				c14.102-9.137,36.279-32.087,36.279-32.087c-3.773,0.648-43.039,25.753-43.039,25.753c29.279-20.866,39.597-39.168,39.597-39.168
				c-2.232,0.131-26.855,18.979-33.925,24.427c9.634-8.316,27.658-35.21,27.658-35.21l-38.197,32.158
				c13.1-21.284,23.515-48.539,23.515-48.539l-29.818,41.619c6.392-14.653,11.755-51.439,11.755-51.439
				c-2.742,1.922-17.014,36.148-17.014,36.148c3.699-13.788,1.797-42.823,1.797-42.823c-1.444,1.06-11.142,35.41-11.142,35.41
				c2.148-9.385,0.449-28.455,0.449-28.455c-2.565,3.304-11.238,27.71-11.238,27.71c-0.483-9.406-6.146-36.302-6.146-36.302
				c-2.717,3.499-3.521,45.145-3.521,45.145c-7.618-33.356-20.381-44.897-20.381-44.897c-1.275,1.344,4.065,39.586,4.065,39.586
				c-2.936-9.752-19.297-31.094-19.297-31.094c-0.395,7.281,16.306,51.194,16.306,51.194
				c-13.761-27.851-34.137-37.248-34.137-37.248c0.407,3.235,28.693,46.215,28.693,46.215
				c-20.378-27.148-37.193-32.261-37.193-32.261c3.047,7.506,31.536,38.498,31.536,38.498
				c-27.929-20.281-40.859-22.729-40.859-22.729c4.151,8.944,40.24,35.558,40.24,35.558c-20.546-14.899-48.685-19.112-48.685-19.112
				c4.114,5.529,35.1,23.978,35.1,23.978c-18.699-9.611-40.314-10.044-40.314-10.044c11.296,4.099,27.098,15.785,27.098,15.785
				c-15.825-1.427-26.015,2.222-26.015,2.222c4.179,4.995,30.96,7.804,30.96,7.804c-10.711-0.492-28.246,5.396-28.246,5.396
				c5.182,4.606,43.236,5.075,43.236,5.075c-33.66,9.366-32.409,13.021-32.409,13.021c16.208-2.829,36.285-5.225,36.285-5.225
				l-27.394,16.331c5.192-0.521,24.454-9.388,24.454-9.388l-14.55,12.875c5.453-1.608,26.891-14.036,26.891-14.036l-23.748,19.161
				l22.803-11.024l-15.923,14.496c8.816-2.03,28.829-16.426,28.829-16.426c-3.924,3.65-16.139,22.192-16.139,22.192
				c4.357-1.6,22.698-20.212,22.698-20.212l-8.678,18.798c2.307-1.169,15.089-16.977,15.089-16.977l-5.411,14.487
				c5.959-2.345,9.999-14.479,10.981-17.708c-0.633,3.3-0.496,13.361-0.496,13.361c2.626-3.22,4.462-16.731,4.462-16.731
				l1.809,14.364l2.652-15.737l7.451,61.777l3.105-0.392l-8.604-59.655l3.589,12.116l-0.495-18.547
				c2.293,5.67,10.809,13.238,10.809,13.238l-3.748-12.598l0.029,0.22l-0.275,0.035l-0.231-0.618
				c0.954,3.387,18.015,18.003,18.015,18.003c-0.588-4.659-11.322-18.769-11.322-18.769c12.821,7.151,30.623,21.899,30.623,21.899
				c-6.332-11.298-26.38-33.72-26.38-33.72c8.886,6.9,36.82,14.688,36.82,14.688c-3.003-2.231-26.074-14.514-32.36-17.849
				c8.927,3.971,43.461,11.713,43.461,11.713c-8.526-5.061-41.266-20.046-41.266-20.046c23.582,3.517,50.352,1.722,50.352,1.722
				C357.726,191.128,320.553,186.868,320.553,186.868z"/>
			<path style="fill:#BAD3DF;" d="M104.22,236.332c8.893-0.275,20.267,17.146,20.267,17.146c6.044,10.229,3.273,11.424,3.273,11.424
				c-2.813,2.362-6.494-4.181-6.494-4.181c-12.879-23.215-27.206-21.479-27.206-21.479c-9.111,3.856-16.439,13.058-16.439,13.058
				c12.088-3.464,27.89,8.205,27.89,8.205c10.779,6.752,7.257,8.758,7.257,8.758c-2.102,1.956-4.555-0.193-4.555-0.193
				c-20.046-16.927-33.238-13.395-33.238-13.395c-7.3,4.954-9.203,10.484-9.203,10.484c11.443-5.273,29.016,6.384,29.016,6.384
				c4.789,2.366,3.617,4.79,3.617,4.79c-1.755,2.027-4.983-0.099-4.983-0.099c-4.641-4.464-15.105-8.378-15.105-8.378
				c-17.664-6.214-20.07,12.788-20.07,12.788c-0.681,8.916-5.465,8.634-5.465,8.634c0.167,0.057,0.311,0.124,0.467,0.182
				c-0.301-0.014-0.471-0.023-0.471-0.023s0.212,0.029,0.609,0.081c4.56,1.873,4.02,5.631,4.02,5.631
				c0.063,9.981,5.371,13.036,5.371,13.036c9.183,4.659,23.315-12.378,23.315-12.378c4.394-5.045,5.679-1.536,5.679-1.536
				c3.274,7.846-26.226,19.009-26.226,19.009c4.964,6.892,15.734,12.091,15.734,12.091c12.101-5.588,19.682-21.523,19.682-21.523
				c4.987-10.522,7.125-10.513,7.125-10.513c6.729-1.133-2.932,13.735-2.932,13.735c-7.222,12.624-21.327,21.43-21.327,21.43
				c3.108-0.889,19.334,4.55,19.334,4.55c15.734-11.606,17.443-28.308,17.443-28.308c1.049-9.874,4.427-8.508,4.427-8.508
				c9.764,3.741-18.118,38.173-18.118,38.173c12.09,0.46,24.29-2.942,24.29-2.942c9.926-8.076,8.551-30.262,8.551-30.262
				c-0.696-8.956,2.46-9.237,2.46-9.237c2.633-0.381,3.697,9.966,3.697,9.966c1.225,13.569-5.775,28.701-5.775,28.701
				c5.859-1.441,18.09-9.744,18.09-9.744c24.577-17.259,16.508-34.127,16.508-34.127c-5.701-16.962-25.501-10.633-25.501-10.633
				c-5.605,1.416-5.86-1-5.86-1c-0.736-2.346,2.974-3.529,2.974-3.529c31.097-11.902,10.615-29.268,10.615-29.268
				C130.512,218.211,104.22,236.332,104.22,236.332z"/>
			<path style="fill:#E8E9F6;" d="M388.213,277.16c0.041-0.076,0.082-0.153,0.126-0.229c2.202-4.323,4.348-8.854,6.177-13.601
				c0.459-1.187,0.939-2.37,1.387-3.566c0.006-0.021,0.017-0.044,0.022-0.066c8.595,1.416,38.842,4.33,58.369-20.113
				c0,0-31.355-8.198-56.878,15.771c0.756-2.177,1.392-4.395,2.068-6.605l0.551-1.856l0.481-1.87
				c0.318-1.249,0.638-2.494,0.959-3.739c0.459-1.778,0.831-3.567,1.206-5.35c7.104,1.219,34.216,4.171,51.634-17.632
				c0,0-28.438-7.454-51.062,14.855c0.922-4.759,1.719-9.471,2.281-14.056c0.134-1.058,0.291-2.104,0.407-3.15
				c6.904-0.098,34.475-2.086,47.622-26.987c0,0-29.279-1.993-47.333,24.082c0.033-0.335,0.066-0.677,0.099-1.011
				c0.206-2.314,0.484-4.572,0.579-6.784c0.131-2.207,0.257-4.357,0.381-6.433c0.013-0.245,0.016-0.483,0.023-0.726l0.794-0.64
				c2.514-0.851,16.237-5.525,22.082-8.374c6.444-3.142,6.442-4.482,12.228-9.344c5.785-4.862,11.962-21.862,11.962-21.862
				s-13.501,1.709-23.234,4.3c-9.732,2.59-13.973,9.423-16.753,12.46c-2.274,2.488-5.76,14.645-6.946,18.963
				c0.004-0.268,0.01-0.537,0.017-0.796c0.025-0.964,0.036-1.908,0.082-2.831c0.043-0.923,0.076-1.826-0.009-2.704
				c-0.126-1.756-0.249-3.423-0.363-4.988c-0.08-1.098-0.154-2.126-0.228-3.123c29.572-29.809,5.737-53.737,5.737-53.737
				c-37.772,19.801-9.235,50.473-7.403,55.023c-0.03,0.608-0.061,1.222-0.095,1.864c-0.077,1.555-0.161,3.21-0.251,4.954
				c-0.069,1.181-0.076,2.419-0.091,3.678c-3.015-4.603-7.108-10.673-9.739-13.84c-4.581-5.516-5.884-5.197-11.978-9.666
				c-6.095-4.468-24.074-6.438-24.074-6.438s4.859,12.71,9.685,21.552c4.824,8.84,12.468,11.342,16.075,13.321
				c2.397,1.314,11.142,1.893,16.759,2.135c1.271,0.344,2.319,0.586,3.069,0.742c-0.121,2.042-0.247,4.155-0.375,6.327
				c-0.093,2.189-0.37,4.421-0.571,6.71c-0.111,1.143-0.225,2.298-0.335,3.466c-0.103,1.042-0.261,2.088-0.4,3.142
				c-17.499-28.786-48.537-27.081-48.537-27.081c13.786,26.945,44.578,27.641,48.464,27.619c-0.582,4.689-1.396,9.497-2.346,14.355
				c-0.219,0.971-0.42,1.951-0.624,2.931c-22.558-24.794-52.589-17.352-52.589-17.352c18.108,23.277,47.401,19.057,52.421,18.133
				c-0.261,1.225-0.531,2.451-0.847,3.668c-0.315,1.225-0.631,2.454-0.945,3.683l-0.475,1.845l-0.541,1.827
				c-0.746,2.431-1.415,4.882-2.287,7.259c-0.414,1.195-0.824,2.388-1.237,3.578c-0.021,0.057-0.043,0.109-0.064,0.168
				c-25.697-28.797-60.256-20.223-60.256-20.223c21.389,27.497,56.496,21.255,60.138,20.522c-0.388,1.017-0.79,2.028-1.183,3.039
				c-1.795,4.666-3.903,9.111-6.059,13.346c-0.34,0.611-0.664,1.215-0.993,1.822c-22.642-20.277-49.075-10.857-49.075-10.857
				c17.831,18.74,42.769,13.403,48.544,11.838c-0.612,1.127-1.233,2.239-1.897,3.302c-0.596,0.978-1.148,1.963-1.762,2.898
				c-0.61,0.935-1.212,1.854-1.811,2.768c-2.453,3.591-4.899,6.905-7.387,9.768c-1.184,1.481-2.522,2.72-3.624,4.05
				c-0.568,0.655-1.118,1.294-1.653,1.914c-0.545,0.611-1.095,1.186-1.619,1.756c-2.128,2.233-4.066,4.128-5.751,5.584
				c-1.682,1.457-3.05,2.569-4.022,3.274c-0.967,0.71-1.512,1.047-1.512,1.047s0.59-0.253,1.658-0.813
				c1.07-0.561,2.617-1.436,4.502-2.69c1.896-1.236,4.107-2.879,6.532-4.907c0.6-0.516,1.23-1.035,1.861-1.594
				c0.62-0.566,1.259-1.15,1.914-1.749c0.661-0.597,1.253-1.292,1.867-1.99c0.612-0.702,1.251-1.41,1.866-2.162
				c2.552-2.941,5.059-6.334,7.568-10.005c0.606-0.934,1.226-1.878,1.854-2.832c0.623-0.954,1.186-1.964,1.796-2.959
				c0.965-1.553,1.847-3.198,2.741-4.854c4.397,2.261,28.575,13.435,50.355-1.897C437.944,276.411,414.18,262.195,388.213,277.16z"
				/>
			<g>
				<path style="fill:#FBD24F;" d="M148.892,247.986l-0.035-0.021C148.834,248.025,148.892,247.986,148.892,247.986z"/>
				<path style="fill:#FBD24F;" d="M176.143,238.887c-0.772-1.801-1.552-3.54-2.341-5.214c0.068-0.287,0.12-0.466,0.122-0.475
					l-0.395-0.112c-0.771-1.625-1.548-3.195-2.328-4.705c0.07-0.194,0.119-0.31,0.122-0.316l-0.379-0.163
					c-0.762-1.465-1.532-2.876-2.302-4.235c0.04-0.092,0.082-0.19,0.12-0.272l-0.376-0.169c-0.655-1.143-1.487-1.922-2.144-2.992
					c0.062-0.119-0.068,0.118-0.068,0.118l-0.366-0.197c-0.497-1.992-1.708-3.519-2.708-4.846c0.056-0.104,0.098-0.181,0.1-0.186
					l-0.095-0.056c-0.909-1.323-1.683-2.513-2.59-3.713c0.045-0.077,0.142-0.085,0.145-0.092l-0.313-0.206
					c-0.891-1.169-1.766-2.276-2.654-3.33c0.033-0.046,0.06-0.065,0.061-0.068l-0.321-0.253c-0.843-0.997-1.68-1.932-2.515-2.829
					c0.01-0.011,0.031-0.038,0.032-0.039l-0.44-0.341c-1.094-1.162-2.232-2.275-3.366-3.319c0.016-0.027,0.042-0.074,0.044-0.075
					l-0.237-0.145c-1.164-1.076-2.251-2.031-3.378-2.941l-0.266-0.276c-0.005,0.006-0.01,0.034-0.018,0.043
					c-0.905-0.716-1.542-1.248-2.42-1.867l-0.19-0.185l-0.003,0.007c-1.245-0.874-3.057-1.969-4.387-2.714l-0.453-0.293
					c-0.001,0.001-0.078-0.015-0.086-0.003c-1.219-0.67-2.424-1.259-3.543-1.758l-0.365-0.208c-0.001,0.006-0.019,0.017-0.028,0.033
					c-1.262-0.543-2.133-0.814-3.241-1.173l-0.038-0.016c-0.003,0.005-0.015,0.027-0.035,0.064
					c-2.803-1.169-3.224-0.972-4.386-1.181l-0.521-0.256c-0.007,0.008-0.101,0.003-0.126,0.056
					c-2.523-0.419-4.025-0.339-4.025-0.339c-1.035,1.104-3.714,18.079-3.714,18.079c-2.182-2.625-1.435-20.322-1.435-20.322
					c-0.739-0.433-1.471-0.835-2.192-1.222c0.011-0.082,0.016-0.141,0.017-0.149l-0.428-0.064c-1.477-0.771-2.921-1.452-4.323-2.04
					c0.008-0.058,0.011-0.099,0.012-0.105l-0.418-0.058c-1.335-0.545-2.634-1.006-3.898-1.403c0.005-0.058,0.009-0.093,0.008-0.102
					l-0.428-0.028c-1.522-0.463-2.984-0.822-4.383-1.099c0-0.025,0.002-0.05,0.004-0.057l-0.692-0.03
					c-1.515-0.283-2.572-0.464-4.572-0.576c0-0.007,0,0.527,0,0.527h0.092c-1.507,0-2.909-0.4-4.176-0.35l-0.416-0.137
					c0.001,0.001-0.001-0.017,0.003-0.013c-1.692,0.088-3.146,0.501-4.33,0.501h-0.405c0,0,0.002-0.018,0.005,0.012
					c-2.096,0.418-3.249,0.869-3.249,0.869l2.43,16.938l-8.423-17.188c-0.837-0.082-1.66-0.126-2.469-0.137
					c-0.029-0.077-0.049-0.132-0.054-0.14l-0.413,0.151c-1.407,0.007-2.537,0.078-3.847,0.269l-0.26,0.012
					c0,0.004,0.003,0.023,0.004,0.037c-1.95,0.292-2.95,0.548-4.197,0.913c-0.003-0.007-0.127-0.006-0.128-0.008l-0.606,0.208
					c-1.462,0.453-2.844,0.978-4.078,1.528l-0.49,0.14c0.002,0.003,0.008,0.047,0.014,0.064c-1.618,0.744-3.009,1.514-4.128,2.205
					l-0.411,0.214c0.001,0.001,0.011,0.023,0.015,0.027c-0.286,0.181-0.544,0.351-0.788,0.515l-0.95,0.26
					c0,0-6.865,4.027-9.596,5.885c-1.075,0.732-3.112,2.427-5.388,4.498c-0.084,0.067-0.175,0.133-0.258,0.201l-0.08-0.061
					l-0.276,0.354c-1.065,0.872-2.072,1.743-2.994,2.604l-0.072-0.051l-0.43,0.656c-0.808,0.767-1.535,1.668-2.239,2.538
					c-1.315,1.418-2.473,2.781-3.301,3.949l-0.106-0.149l-0.305,0.449c-0.933,1.307-1.773,2.566-2.502,3.887l-0.037-0.02
					l-0.144,0.496c-0.615,1.159-1.095,2.295-1.551,3.489c-0.017-0.004-0.017-0.051-0.024-0.052l-0.011,0.118
					c-0.413,1.096-0.679,1.98-0.911,2.919c-0.005-0.001-0.004-0.073-0.007-0.073l-0.05,0.372c-0.665,2.889-0.462,5.066-0.396,5.835
					l0.108,0.423c-0.001,0.001,0.373-0.282,0.373-0.282l-0.247-0.325l-0.301,1.481c0,0,5.318,1.588,10.242,1.356
					c4.926-0.233,11.349,4.227,16.892,6.567c3.668,1.548,10.627,3.537,14.934,4.695l0.13,0.108c0.003-0.004,0.019-0.03,0.029-0.048
					c0.881,0.236,1.641,0.439,2.228,0.592c0.814,0.222,1.129,0.258,1.129,0.258C74.772,228.071,80,226.208,80,226.21v0.001
					c-1,1.619-4.355,12.765-4.355,12.765c0.805,0.746,1.901,1.446,3.048,2.042c-0.006,0.027,0.025,0.071,0.024,0.077l0.439,0.147
					c0.769,0.377,1.603,0.735,2.468,1.059c-0.015,0.042-0.077,0.05-0.077,0.057l0.713,0.233c-0.001-0.002,0.009-0.027,0.017-0.047
					c1.203,0.41,2.124,0.682,3.196,0.966c-0.005,0.032-0.173,0.004-0.172,0.009l0.63,0.123c0.002,0,0.01-0.023,0.009-0.024
					c1.231,0.315,2.185,0.52,3.208,0.724l0.511,0.161c0.002-0.004,0.006-0.025,0.013-0.044c1.266,0.212,3.164,0.57,4.56,0.765
					l0.487,0.129c0-0.006,0.005-0.022,0.011-0.044c1.284,0.151,2.665,0.323,3.719,0.427l0.374,0.079
					c0.001-0.004-0.002-0.03,0.004-0.049c1.576,0.148,2.546,0.197,2.546,0.197c1.566-8.103,5.256,0.796,5.256,0.796
					c0.521-0.396,1.37-0.605,3.37-0.689c0,0.003,0,0.012,0,0.016l0.269-0.034c1.144-0.047,2.417-0.032,3.811,0.024l0.367,0.05
					c0,0-0.008-0.02-0.008-0.033c1.084,0.047,2.198,0.121,3.316,0.202l0.386,0.097c-0.002-0.007,0.005-0.029,0.014-0.063
					c1.218,0.094,2.415,0.204,3.541,0.315l0.387,0.127c0-0.006,0.01-0.039,0.026-0.085c1.499,0.154,2.843,0.311,3.89,0.436
					l0.38,0.146c0.001-0.006,0.017-0.046,0.038-0.096c0.389,0.048,0.704,0.088,0.978,0.123l5.061,1.831
					c0.944,0.125,1.93,0.199,2.865,0.477l0.569,0.168l0.067-0.233c0.004-0.009-0.027-0.19-0.011-0.241
					c1.101,0.039,2.207-0.04,3.36-0.086l0.353,0.143c0.004-0.011,0.031-0.101,0.092-0.22c0.385-0.018,0.756-0.06,1.129-0.097
					l3.977-0.043l0.049-0.354c1.247-0.053,2.408-0.256,3.725-0.811l0.227,0.135c0.006-0.018,0.02-0.042,0.043-0.085
					c1.711-0.296,3.329-0.536,5.007-0.91l0.298,0.27c0.007-0.012,0.064-0.111,0.216-0.333c2.454-0.557,4.824-1.166,7.069-1.803
					l0.342,0.222c0.005-0.01,0.092-0.151,0.247-0.383c2.127-0.608,4.115-1.227,5.895-1.81l0.325,0.248
					c0.004-0.008,0.151-0.196,0.403-0.487c3.57-1.186,6.212-2.188,7.334-2.626C177.091,240.835,176.165,238.9,176.143,238.887z"/>
			</g>
			<g>
				<path style="fill:#4F4FB7;" d="M149.334,208.052l0.02-0.036C149.292,207.997,149.334,208.052,149.334,208.052z"/>
				<path style="fill:#4F4FB7;" d="M159.703,234.845c1.763-0.856,3.462-1.717,5.099-2.584c0.289,0.055,0.472,0.099,0.48,0.1
					l0.093-0.4c1.587-0.846,3.118-1.696,4.591-2.546c0.196,0.062,0.315,0.104,0.321,0.107l0.146-0.386
					c1.427-0.831,2.799-1.665,4.122-2.499c0.094,0.035,0.194,0.073,0.278,0.107l0.152-0.383c1.11-0.708,1.849-1.576,2.887-2.282
					c0.121,0.056-0.121-0.062-0.121-0.062l0.18-0.374c1.966-0.59,3.434-1.873,4.713-2.933c0.106,0.051,0.185,0.089,0.189,0.091
					l0.051-0.097c1.28-0.97,2.431-1.799,3.587-2.762c0.079,0.042,0.092,0.137,0.099,0.141l0.19-0.323
					c1.126-0.945,2.191-1.871,3.201-2.808c0.048,0.031,0.067,0.057,0.072,0.058l0.237-0.333c0.956-0.889,1.851-1.77,2.708-2.646
					c0.011,0.009,0.038,0.03,0.04,0.03l0.321-0.456c1.109-1.146,2.167-2.336,3.157-3.518c0.028,0.013,0.075,0.038,0.077,0.04
					l0.134-0.244c1.021-1.212,1.923-2.344,2.779-3.511l0.264-0.278c-0.006-0.005-0.035-0.009-0.044-0.018
					c0.672-0.938,1.173-1.598,1.75-2.504l0.176-0.199c0,0-0.008-0.001-0.008-0.002c0.815-1.284,1.824-3.147,2.506-4.51l0.271-0.465
					c-0.001-0.001,0.01-0.078-0.002-0.085c0.612-1.249,1.145-2.481,1.589-3.622l0.191-0.375c-0.006-0.001-0.018-0.018-0.034-0.025
					c0.484-1.287,0.712-2.169,1.02-3.293l0.014-0.039c-0.005-0.003-0.027-0.014-0.066-0.032c1.037-2.856,0.82-3.266,0.973-4.437
					l0.232-0.532c-0.008-0.006-0.007-0.101-0.061-0.122c0.3-2.54,0.149-4.038,0.149-4.038c-1.153-0.981-18.233-2.86-18.233-2.86
					c2.52-2.303,20.232-2.389,20.232-2.389c0.398-0.757,0.766-1.508,1.118-2.247c0.083,0.007,0.142,0.009,0.149,0.01l0.045-0.43
					c0.701-1.51,1.313-2.985,1.835-4.414c0.059,0.004,0.099,0.006,0.105,0.007l0.038-0.421c0.482-1.359,0.881-2.678,1.217-3.959
					c0.058,0.002,0.095,0.004,0.103,0.002l0.008-0.428c0.391-1.542,0.68-3.02,0.892-4.43c0.025-0.001,0.05-0.001,0.057,0.001
					l0.009-0.668c0.211-1.526,0.325-2.57,0.374-4.57c0.008,0,0.028,0,0.03,0l-0.02-0.209c0.035-1.51-0.017-2.786-0.127-4.05
					l-0.022-0.352c0,0.001-0.016,0.033-0.018,0.036c-0.168-1.686-0.407-2.962-0.682-4.136l-0.018-0.245
					c-0.005,0.001-0.028,0.008-0.057,0.011c-0.497-1.924-1.063-3.353-1.063-3.353l-16.825,3.15l16.762-9.259
					c0.043-0.841,0.043-1.682,0.016-2.492c0.076-0.031,0.127-0.063,0.135-0.068l-0.173-0.41c-0.073-1.405-0.217-2.607-0.47-3.908
					l-0.046-0.335c-0.004,0.001-0.022,0.002-0.037,0.004c-0.357-1.942-0.666-2.845-1.087-4.074c0.007-0.003,0.01-0.09,0.012-0.091
					l-0.231-0.576c-0.521-1.44-1.107-2.785-1.715-3.991l-0.162-0.479c-0.001,0.002-0.046,0.012-0.062,0.018
					c-0.82-1.581-1.653-2.933-2.396-4.018l-0.233-0.4c-0.001,0.001-0.023,0.012-0.027,0.016c-0.194-0.276-0.376-0.525-0.551-0.761
					l-0.305-0.938c0,0-4.345-6.667-6.33-9.308c-0.781-1.039-2.57-2.994-4.745-5.17c-0.072-0.081-0.142-0.168-0.212-0.248
					l0.057-0.081l-0.367-0.26c-0.921-1.022-1.838-1.987-2.742-2.868l0.047-0.075l-0.676-0.398c-0.803-0.77-1.738-1.455-2.639-2.117
					c-1.479-1.247-2.895-2.339-4.101-3.111l0.144-0.112l-0.463-0.284c-1.35-0.871-2.646-1.65-4.001-2.317l0.018-0.037l-0.502-0.121
					c-1.186-0.558-2.345-0.985-3.558-1.385c0.004-0.017,0.05-0.019,0.051-0.027l-0.119-0.005c-1.114-0.36-2.009-0.584-2.958-0.772
					c0.001-0.005,0.072-0.007,0.072-0.011l-0.374-0.032c-2.917-0.528-5.082-0.224-5.848-0.122l-0.417,0.127
					c-0.002-0.001,0.299,0.358,0.299,0.358l0.314-0.261l-1.494-0.231c0,0-1.337,5.387-0.874,10.294
					c0.464,4.91-3.689,11.535-5.766,17.182c-1.375,3.736-3.033,10.78-3.988,15.137l-0.102,0.135c0.004,0.003,0.031,0.017,0.05,0.027
					c-0.195,0.891-0.362,1.659-0.488,2.252c-0.184,0.824-0.17,1.461-0.17,1.461c10.674,3.687,12.814,9.14,12.814,9.141l-0.001,0
					c-1.759-1.313-12.991-4.068-12.991-4.068c-0.706,0.839-1.373,1.807-1.915,2.98c-0.028-0.005-0.079-0.052-0.084-0.053
					l-0.129,0.407c-0.341,0.785-0.664,1.615-0.944,2.494c-0.043-0.013-0.055-0.084-0.062-0.084l-0.2,0.719
					c0.002-0.001,0.026,0.005,0.048,0.012c-0.353,1.221-0.583,2.151-0.816,3.236c-0.031-0.004-0.012-0.172-0.017-0.171l-0.093,0.634
					c0.001,0.001,0.023,0.009,0.025,0.008c-0.258,1.244-0.417,2.206-0.572,3.238l-0.139,0.518c0.005,0.001,0.026,0.005,0.045,0.01
					c-0.152,1.275-0.421,3.188-0.549,4.591l-0.105,0.494c0.004-0.002,0.022,0.004,0.043,0.008c-0.09,1.29-0.198,2.677-0.251,3.734
					l-0.06,0.377c0.002,0.001,0.028-0.002,0.047,0.001c-0.073,1.581-0.077,2.553-0.077,2.553c8.168,1.184-0.552,5.23-0.552,5.23
					c0.419,0.503,0.685,1.279,0.843,3.279c-0.003,0-0.013,0-0.016,0l0.051,0.323c0.101,1.141,0.148,2.441,0.156,3.837l-0.03,0.382
					c0,0,0.021-0.002,0.033-0.002c0.004,1.086-0.016,2.204-0.045,3.324l-0.079,0.392c0.006-0.002,0.029,0.005,0.063,0.012
					c-0.035,1.221-0.089,2.421-0.149,3.551l-0.107,0.394c0.005,0,0.038,0.008,0.085,0.022c-0.084,1.506-0.177,2.855-0.253,3.907
					l-0.128,0.385c0.005,0.001,0.045,0.015,0.097,0.034c-0.03,0.39-0.055,0.706-0.078,0.982l-1.591,5.141
					c-0.079,0.949-0.107,1.937-0.341,2.885l-0.141,0.577l0.236,0.057c0.009,0.002,0.188-0.037,0.239-0.022
					c0.014,1.101,0.145,2.202,0.245,3.352l-0.126,0.359c0.012,0.004,0.102,0.026,0.224,0.083c0.036,0.384,0.096,0.752,0.149,1.124
					l0.229,3.97l0.356,0.033c0.112,1.244,0.369,2.394,0.986,3.682l-0.125,0.233c0.017,0.005,0.043,0.017,0.086,0.04
					c0.377,1.695,0.693,3.299,1.146,4.958l-0.256,0.311c0.011,0.006,0.114,0.06,0.343,0.201c0.671,2.425,1.391,4.764,2.132,6.976
					l-0.205,0.352c0.009,0.005,0.155,0.085,0.393,0.229c0.709,2.095,1.419,4.052,2.086,5.803l-0.232,0.336
					c0.007,0.003,0.202,0.141,0.505,0.38c1.354,3.51,2.478,6.102,2.969,7.201C157.802,235.883,159.69,234.869,159.703,234.845z"/>
			</g>
			<path style="fill:#8C8CEA;" d="M158.096,158.47l-0.16-0.378c-0.212-1.385-0.474-2.698-0.772-3.945
				c0.048-0.029,0.08-0.044,0.088-0.047l-0.19-0.376c-0.376-1.498-0.804-2.896-1.269-4.201c0.022-0.012,0.044-0.023,0.05-0.025
				l-0.186-0.362c-0.518-1.404-1.081-2.69-1.661-3.871c0.009-0.005,0.026-0.016,0.028-0.016l-0.232-0.383
				c-0.663-1.311-1.347-2.486-2.02-3.519l-0.21-0.346c-0.001,0.004-0.013,0.008-0.016,0.01c-0.915-1.364-1.797-2.481-2.573-3.36
				l-0.216-0.33c-0.005,0.003-0.024,0.018-0.048,0.032c-1.392-1.539-2.361-2.264-2.361-2.264l-12.928,10.477l10.131-15.593
				c-0.346-0.74-0.722-1.448-1.117-2.126c0.049-0.063,0.082-0.106,0.089-0.115l-0.335-0.27c-0.708-1.167-1.475-2.259-2.285-3.259
				l-0.286-0.393c-0.002,0.003-0.016,0.012-0.028,0.021c-0.874-1.041-1.784-1.999-2.708-2.861c0.003-0.003,0.012-0.016,0.014-0.017
				l-0.442-0.357c-1.105-0.992-2.212-1.861-3.286-2.617l-0.353-0.325c-0.003,0.004-0.031,0.036-0.044,0.048
				c-1.426-0.979-2.759-1.752-3.892-2.342l-0.386-0.232c0.002,0.001-0.012,0.021-0.014,0.024c-1.807-0.912-3.001-1.323-3.001-1.323
				l-6.228,11.753l0,0l1.374-14.315c-0.683-0.371-1.349-0.713-2.015-1.052c0.007-0.039,0.015-0.085,0.023-0.123l-0.396-0.071
				c-1.085-0.547-2.141-1.044-3.177-1.511l0.017-0.104l-0.43-0.077c-1.414-0.627-2.784-1.185-4.107-1.675l0.009-0.096l-0.429-0.052
				c-1.259-0.454-2.487-0.859-3.666-1.2l0.008-0.089l-0.762-0.028c-1.508-0.423-3.185-0.756-4.652-1.014l-0.002-0.084l-0.097,0.005
				c-1.253-0.224-2.288-0.383-3.429-0.488l0.077-0.064l-0.698,0.024c-1.554-0.128-3.19-0.146-4.659-0.094l-0.002-0.041l-0.315,0.122
				c-1.271,0.065-2.374,0.227-3.596,0.443c-0.003-0.016,0.076-0.042,0.074-0.049l-0.085,0.051c-1.118,0.202-1.979,0.42-2.876,0.694
				c-0.002-0.006,0.064-0.041,0.064-0.042l-0.337,0.144c-3.04,0.984-4.737,2.193-5.157,2.517c-0.029-0.009-0.063-0.025-0.063-0.025
				l-0.076,0.219c0,0,0.072,0.033,0.172,0.079c0.795,1.119,1.504,2.264,2.137,3.418l0.023,0.661c0.051-0.002,0.17-0.007,0.321-0.014
				c0.38,0.724,0.739,1.45,1.062,2.168l-0.012,0.393c0.018,0,0.087,0.002,0.179,0.003c0.381,0.873,0.725,1.733,1.027,2.566
				l0.02,0.38l0.114-0.008c0.296,0.839,0.552,1.645,0.778,2.409l-0.008,0.382l0.121,0.002c0.383,1.342,0.664,2.535,0.858,3.503
				l-0.015,0.392l0.094,0.003c0.264,1.361,0.359,2.195,0.359,2.195c7.353-0.415,13.403,2.86,13.403,2.86
				c-3.486,0.277-12.365,2.942-12.365,2.942c-0.124,0.688-0.209,1.396-0.271,2.114l-0.061,0.006l0.026,0.401
				c-0.065,0.942-0.11,2.404-0.093,3.367L87.729,139h0.004c0.321,0,0.185,2.058,0.331,3.296l0.009,0.096l0.058-0.097
				c0.123,0.978,0.325,2.256,0.516,3.295L88.628,146h0.097c0.225,1,0.465,2.212,0.69,3.163l-0.022,0.366
				c0.011-0.003,0.054-0.012,0.12-0.01c0.511,2.083,0.936,3.396,0.936,3.396c10.834-1.743,15.009,1.863,15.015,1.868l0,0
				c-2.106-0.275-12.838,2.555-12.838,2.555c-0.218,1.043-0.268,2.215-0.192,3.471c-0.029,0.005-0.052,0.011-0.057,0.012
				l0.093,0.417c0.065,0.831,0.184,1.69,0.345,2.572c-0.041,0.01-0.081-0.044-0.085-0.041l0.161,0.71
				c0.004-0.001,0.028-0.006,0.046-0.013c0.261,1.211,0.49,2.113,0.787,3.15c-0.03,0.01-0.136-0.509-0.139-0.506l0.166,0.218
				c0.001-0.001,0.022-0.003,0.025-0.003c0.445,1.931,0.7,2.448,1.042,3.403l0.143,0.69c0.004-0.001,0.037,0.083,0.055,0.082
				c0.452,1.16,1.108,2.967,1.641,4.227l0.137,0.495c0.005-0.003,0.023,0.004,0.046-0.001c0.512,1.145,1.059,2.391,1.498,3.318
				l0.118,0.355c0.007,0.001,0.026-0.014,0.042-0.02c0.666,1.39,1.107,2.225,1.107,2.225c7.541-2.732,17.227-1.03,17.227-1.03
				c-5.132,1.407-15.318,5.729-15.318,5.729c0.589,0.239,1.358,1.128,2.207,2.385c-0.003,0.004-0.011,0.008-0.012,0.008l0.209,0.291
				c0.61,0.93,1.256,2.04,1.905,3.23l0.152,0.352c0.002-0.001,0.021-0.008,0.033-0.013c0.5,0.928,0.997,1.898,1.485,2.872
				l0.114,0.37c0.005-0.001,0.026-0.007,0.062-0.019c0.527,1.063,1.032,2.117,1.501,3.115l0.088,0.383
				c0.005-0.001,0.038-0.008,0.082-0.018c0.622,1.328,1.162,2.525,1.578,3.463l0.066,0.388c0.005-0.001,0.046-0.008,0.099-0.015
				c0.448,1.015,0.714,1.638,0.714,1.638c5.172-0.869,13.485,1.907,15.347,2.567l-0.007,0.064c-3.19-0.408-14.675,1.74-14.675,1.74
				c0.369,0.852,0.798,1.71,1.031,2.629l0.143,0.557l0.23-0.057c0.007-0.001,0.146-0.12,0.192-0.131
				c0.519,0.936,1.136,1.822,1.749,2.761l0.059,0.366c0.009-0.003,0.098-0.024,0.227-0.032c0.646,0.972,1.344,1.818,2.068,2.784
				l0.008,0.278c0.009-0.001,0.316,0,0.497,0c0.839,1.467,1.333,2.619,3.333,3.693v0.295c0,0-0.303-0.047-0.102-0.042
				c1.099,1.279,2.011,2.507,3.159,3.721l-0.126,0.383c0.012,0.001,0.102-0.001,0.358,0.018c1.691,1.766,3.368,3.442,5.018,4.995
				l-0.019,0.395c0.01,0.001,0.17,0.005,0.436,0.018c1.572,1.469,3.076,2.819,4.451,4.016l-0.048,0.394
				c0.009,0,0.239,0.029,0.61,0.094c2.768,2.387,4.919,4.089,5.844,4.805c0.055,1.167,1.208-0.572,1.206-0.597
				c1.119-1.542,2.177-3.059,3.184-4.553c0.27-0.084,0.448-0.132,0.454-0.132l-0.102-0.387c0.97-1.453,1.952-2.893,2.823-4.297
				c0.196-0.038,0.385-0.061,0.385-0.061l-0.05-0.397c-0.156-1.243,1.573-2.705,2.321-4.025c0.099-0.012,0.172-0.024,0.259-0.033
				l-0.06-0.395c0.625-1.116,1.214-2.214,1.778-3.293c0.132-0.009,0.22-0.013,0.226-0.012l-0.016-0.404
				c0.711-1.381,1.374-2.734,1.991-4.061c0.114-0.004,0.197-0.009,0.203-0.01l-0.011-0.399c0.65-1.419,1.25-2.802,1.798-4.158
				c0.087,0.001,0.139,0.001,0.146,0.003l0.013-0.403c0.53-1.326,1.016-2.624,1.454-3.889c0.053,0.004,0.084,0.006,0.086,0.007
				l0.051-0.399c0.411-1.2,0.774-2.366,1.106-3.51c0.013,0,0.048,0.004,0.049,0.004l0.065-0.105
				c0.424-1.493,0.785-3.033,1.091-4.033c0.028,0-0.031,0-0.031,0v-1.132c0-1.507,0.632-2.892,0.826-4.284l0.131-0.357
				c-0.008-0.003-0.021,0.007-0.034,0.003c0.149-1.112,0.221-2.047,0.301-3.088l0.006-0.39c-0.002,0-0.005-0.002-0.007-0.002
				c0.54-3.543,0.18-3.391,0.138-4.871l0.047-0.455c-0.002-0.001-0.009-0.035-0.026-0.037c-0.049-1.351-0.148-2.633-0.29-3.814
				l-0.008-0.4c-0.004,0.001-0.022-0.004-0.039-0.003c-0.175-1.323-0.4-2.534-0.651-3.636l-0.018-0.386c-0.006,0-0.032,0-0.07,0.002
				c-0.366-1.524-0.792-2.881-1.197-3.956l-0.047-0.443c-0.007,0.001-0.048,0.005-0.104,0.013c-0.854-1.879-1.717-3.426-1.717-3.426
				c-1.436-0.313-16.926,5.964-16.926,5.964c1.102-3.13,16.237-11.303,16.237-11.303c-0.004-0.829-0.032-1.63-0.071-2.423
				c0.073-0.034,0.126-0.055,0.133-0.057l-0.158-0.385c-0.094-1.614-0.244-3.159-0.454-4.621
				C158.051,158.488,158.09,158.475,158.096,158.47z"/>
		</g>
		<g>
			<g>
				<polygon style="fill:#26253A;" points="90.306,219.288 360.368,174.277 396.523,360.961 124.986,401.543 				"/>
				<polygon style="fill:#D6EBF2;" points="130.313,394.072 267.765,364.28 382.874,352.474 372.174,308.201 123.51,354.688 				"/>
				<polygon style="fill:#FFFFFF;" points="135.725,385.41 130.313,394.072 96.754,220.87 107.579,211.127 				"/>
				<path style="fill:#E8E9F6;" d="M105.801,206.006l29.924,179.404c0,0,32.795-17.44,66.034-25.978
					c22.118-5.682,40.73-7.077,53.042-1.083c13.702,6.669,12.964,6.299,12.964,6.299l-33.531-170.842c0,0-25.981-3.248-53.043-1.082
					C154.126,194.891,105.801,206.006,105.801,206.006z"/>
				<path style="fill:#EFF3F4;" d="M267.765,364.28c0,0,30.335-8.049,46.575-10.213c16.237-2.165,56.289-3.248,67.113,0
					c10.826,3.246-28.143-178.615-28.143-178.615s-93.096,11.908-106.087,15.156c-12.989,3.247-12.989,3.247-12.989,3.247
					L267.765,364.28z"/>
				<g>
					<path style="fill:#FFFFFF;" d="M220.853,251.024c-1.094-1.242-2.581-1.161-4.089-1.24c-3.944-0.202-7.892-0.349-11.838-0.47
						c-8.146-0.253-16.295-0.255-24.441-0.033c-16.355,0.444-32.985,1.958-48.854,6.092c-1.617,0.423-1.072,2.883,0.566,2.533
						c14.561-3.105,29.174-4.905,44.051-5.545c6.826-0.292,13.662-0.311,20.493-0.227c3.353,0.043,6.707,0.143,10.059,0.258
						c1.433,0.048,6.172-0.358,9.25-0.054c0.159,0.197,0.382,0.352,0.679,0.422c0.876,0.211,1.696,0.568,2.571,0.771
						C220.775,253.869,221.898,252.21,220.853,251.024z"/>
					<path style="fill:#FFFFFF;" d="M215.334,217.844c-30.762-6.766-63.428,0.566-94.177,3.859
						c-1.709,0.182-1.095,2.754,0.578,2.591c30.781-2.994,61.89-9.197,92.732-3.618C216.306,221.008,217.225,218.26,215.334,217.844
						z"/>
				</g>
				<g>
					<g>
						<path style="fill:#E8E9F6;" d="M338.728,199.784c-3.798-1.296-8.997-0.142-12.883,0.113
							c-7.636,0.501-15.262,1.186-22.876,1.951c-18.035,1.809-37.204,3.417-53.605,11.658c-1.687,0.847-0.33,3.217,1.35,2.537
							c16.517-6.69,34.078-8.803,51.683-10.619c11.727-1.212,23.98-2.919,35.798-2.504
							C340.048,202.984,340.439,200.368,338.728,199.784z"/>
						<path style="fill:#E8E9F6;" d="M342.808,222.204c-13.814-1.645-28.712-0.22-42.512,0.911
							c-14.413,1.181-29.115,3.143-42.663,8.419c-1.404,0.546-0.503,2.976,0.924,2.492c13.919-4.732,28.683-6.673,43.284-7.83
							c13.634-1.081,27.234-0.249,40.842-0.91C344.67,225.19,344.791,222.44,342.808,222.204z"/>
						<path style="fill:#E8E9F6;" d="M354.569,245.452c-1.32-2.568-9.552-1.034-11.617-0.95c-9.737,0.396-19.466,1.087-29.181,1.838
							c-10.721,0.828-21.431,1.803-32.111,3.054c-7.089,0.832-14.627,1.45-21.451,3.68c-1.647,0.536-1.084,3.174,0.594,2.65
							c5.89-1.837,12.29-2.313,18.384-3.043c10.254-1.231,20.552-2.117,30.844-2.934c9.504-0.754,19.019-1.395,28.541-1.863
							c3.245-0.159,6.493-0.292,9.745-0.353c0.956-0.016,1.916-0.018,2.871,0c1.598,0.031,1.22,0.443,0.666-0.636
							C352.761,248.661,355.476,247.214,354.569,245.452z"/>
						<path style="fill:#E8E9F6;" d="M358.502,268.666c-13.433,0.029-27.615,0.815-40.737,3.789
							c-1.784,0.405-1.163,3.15,0.619,2.762c13.37-2.921,26.904-2.057,40.374-3.721
							C360.382,271.295,360.106,268.663,358.502,268.666z"/>
						<path style="fill:#E8E9F6;" d="M357.748,291.975c-8.993-0.148-18.447-0.582-27.253,1.509
							c-1.659,0.393-1.089,2.911,0.574,2.573c8.956-1.818,17.995-0.077,26.911-1.511
							C359.451,294.308,359.208,291.998,357.748,291.975z"/>
						<path style="fill:#E8E9F6;" d="M357.009,331.436c-11.574-0.342-25.069-0.189-36.226,3.196
							c-1.576,0.477-1.081,2.853,0.561,2.514c11.707-2.401,23.661-2.362,35.548-2.786
							C358.758,334.295,358.915,331.493,357.009,331.436z"/>
					</g>
					<polygon style="fill:#E8E9F6;" points="267.396,268.356 273.667,310.784 312.775,306.357 302.443,262.822 					"/>
				</g>
				<g>
					<line style="fill:none;stroke:#B8D5E0;stroke-miterlimit:10;" x1="101.004" y1="216.706" x2="132.733" y2="390.476"/>
					<line style="fill:none;stroke:#B8D5E0;stroke-miterlimit:10;" x1="103.587" y1="214.861" x2="134.578" y2="387.893"/>
					<line style="fill:none;stroke:#B8D5E0;stroke-miterlimit:10;" x1="98.422" y1="219.656" x2="130.151" y2="391.951"/>
				</g>
			</g>
			<g>
				<path style="fill:#37377C;" d="M215.202,159.222l2.01,34.096c0,0,28.891,3.16,39.674,2.711
					c10.883-0.454,46.99-6.326,46.99-6.326l-2.77-34.638L215.202,159.222z"/>
				<polygon style="fill:#37377C;" points="258.153,186.931 323.498,155.745 255.9,135.162 190.479,160.672 				"/>
				<polygon style="fill:#8C8CEA;" points="258.363,189.868 258.153,186.931 190.479,160.672 190.352,163.254 				"/>
				<polygon style="fill:#4F4FB7;" points="323.498,155.745 258.153,186.931 258.363,190.36 323.419,158.572 				"/>
			</g>
		</g>
		<g>
			<g>
				<path style="fill:#8C8CEA;" d="M210,353H68.251C59.881,353,51,359.173,51,368.328v18.107C51,395.586,59.881,402,68.251,402H210
					V353z"/>
				<rect x="66" y="354" style="fill:#4F4FB7;" width="19" height="48"/>
				<rect x="149" y="354" style="fill:#4F4FB7;" width="22" height="48"/>
				<rect x="65" y="353" style="fill:#4F4FB7;" width="145" height="3"/>
			</g>
			<g>
				<path style="fill:#FBB82C;" d="M163,301.284l-97.869-0.847c-8.714,0-17.131,7.726-17.131,17.254v18.852
					c0,9.53,8.417,17.258,17.131,17.258L163,354.647V301.284z"/>
				<path style="fill:#FFFFFF;" d="M188.624,325.68c0-10.627,7.008-18.986,17.216-23.455c-0.747-0.033-1.499,0.775-2.261,0.775
					h-46.424C138.95,303,123,312.14,123,325.484v1.735c0,13.34,15.95,24.78,34.155,24.78h46.424c1.754,0,3.474-0.414,5.152-0.609
					C196.977,347.492,188.624,337.281,188.624,325.68z"/>
				<rect x="74" y="300" style="fill:#FBD24F;" width="9" height="54"/>
				<rect x="88" y="300" style="fill:#FBD24F;" width="7" height="54"/>
				<g>
					<rect x="121" y="322" style="fill:#BAD3DF;" width="67" height="1"/>
					<rect x="121" y="326" style="fill:#BAD3DF;" width="67" height="1"/>
					
						<rect x="158.008" y="305.777" transform="matrix(0.0065 -1 1 0.0065 -179.827 493.7157)" style="fill:#BAD3DF;" width="1.098" height="63.163"/>
					
						<rect x="164.482" y="313.822" transform="matrix(0.0023 -1 1 0.0023 -179.0273 507.9092)" style="fill:#BAD3DF;" width="1.099" height="59.709"/>
					<rect x="122" y="329" style="fill:#BAD3DF;" width="66" height="2"/>
					<rect x="123" y="315" style="fill:#BAD3DF;" width="67" height="1"/>
					
						<rect x="160.669" y="280.062" transform="matrix(0.0022 -1 1 0.0022 -149.9932 471.3747)" style="fill:#BAD3DF;" width="1.098" height="61.579"/>
					
						<rect x="165.993" y="279.068" transform="matrix(0.0024 -1 1 0.0024 -141.4158 473.3539)" style="fill:#BAD3DF;" width="1.098" height="56.975"/>
					
						<rect x="173.618" y="322.627" transform="matrix(0.0052 -1 1 0.0052 -175.8377 521.4432)" style="fill:#BAD3DF;" width="1.099" height="52.947"/>
				</g>
				<path style="fill:#FBD24F;" d="M209.064,351.074L197.429,351h-38.275C142.28,351,123,337.494,123,325.22v-1.735
					C123,311.6,142.087,304,159.154,304h31.585h7.344h7.142h0.174l4.169-4h-10.062h-40.352C140.385,300,121,308.556,121,323.484
					v1.735c0,14.493,18.976,28.78,38.154,28.78h46.425c0.981,0,1.862,0.071,2.666-0.293L209.064,351.074z"/>
			</g>
			<g>
				<path style="fill:#FBD24F;" d="M154.589,239.057c0,0,12.8,0.254,14.912,11.187c0.574,2.965,0.308,2.902,0.308,2.902l-8.863,1.63
					l1.133,25.705l-29.443,1.656v-25.681c0-0.002-8.047-1.624-8.047-1.624s-0.28-0.799-0.28-2.174
					c-0.002-10.378,10.811-15.256,12.883-13.602c2.072,1.66,6.282,5.386,9.355,4.972
					C149.619,243.616,154.589,239.057,154.589,239.057z"/>
				<path style="fill:#FDBA9F;" d="M148.242,238.888c-1.356-1.187-1.294-3.936-1.106-6.024c0.023,0.001,0.045,0.003,0.069,0.003
					c3.558,0,6.443-2.765,6.443-6.173c0-3.41-2.886-6.173-6.443-6.173s-5.644,2.161-5.644,5.57c0,0.993,0.237,9.895-0.131,11.991
					c-0.368,2.098-2.579,2.511-2.579,2.511l-2.076,0.447c0,0,2.445,2.203,5.206,3.466c2.762,1.262,4.793,1.554,7.45,0.773
					c2.659-0.775,5.712-4.352,5.712-4.352S150.268,240.662,148.242,238.888z"/>
				<path style="fill:#26253A;" d="M156.29,214h-9.631c-0.763,0-1.49,0.101-2.15,0.382c-4.079,0.624-7.263,5.679-7.263,11.856
					c0,1.601,0.215,3.115,0.607,4.511c0.05,0.087,0.103,0.166,0.16,0.244c0.722,1.019,1.649,1.5,2.685,1.633
					c0.271-0.026,0.54-0.039,0.811-0.028c0.647-0.224,0.589-1.044,0.358-2.15c-0.245-1.172-0.945-3.943,0.489-4.46
					c0.247-0.086,0.441-0.015,0.595,0.157c0.246-0.716,0.548-0.846,0.895-1.465c0.825,0.491,1.785,1.321,2.813,1.321h9.631
					c3.045,0,5.513-2.956,5.513-6S159.334,214,156.29,214z"/>
				<polygon style="fill:#4F4FB7;" points="166.679,279.822 132.689,281.536 114.947,287.45 118.332,298.971 166.449,296.567 				
					"/>
				<polygon style="fill:#26253A;" points="151.664,298.785 155.36,300.018 156.839,306.424 158.317,308.889 159.303,293.856 
					152.403,294.103 				"/>
				<path style="fill:#8C8CEA;" d="M152.699,301.304l1.674-10.055c0,0-36.032-6.939-39.802-3.587
					c-3.771,3.353-2.934,9.451-0.84,11.965C115.827,302.141,152.699,301.304,152.699,301.304z"/>
				<path style="fill:#8C8CEA;" d="M166.427,297.986c0,0,4.609-35.191,4.19-38.964c-0.419-3.77-1.256-5.865-6.285-5.026
					c-5.029,0.836-5.191-2.934-6.576,6.284c-1.384,9.216,0,37.706,0,37.706H166.427z"/>
				<g>
					<polygon style="fill:#FBB82C;" points="157.331,243 154.128,265.964 167.435,263.847 171.378,243 					"/>
					<polygon style="fill:#FBB82C;" points="167.311,264.472 173.288,261.33 175.813,240.876 168.914,244.08 					"/>
				</g>
				<path style="fill:#FDBA9F;" d="M126.036,255.169c0,0-0.493,13.06,0.986,15.771c1.478,2.711,12.567,3.45,17.743,1.232
					c5.174-2.218,10.35-6.653,10.35-6.653l6.407-1.725l0.986-5.422l-4.682-1.233l-4.189,4.191l-20.453,5.421l-0.547-10.295
					L126.036,255.169z"/>
				<polygon style="fill:#26253A;" points="160.535,298 162.753,304.184 165.956,304.666 165.463,298 				"/>
			</g>
		</g>
		<g>
			<g>
				<g>
					<path style="fill:#26253A;" d="M412.569,399.352c0,0,1.279-1.283,3.708-2.71c2.425-1.429,4.85-2.71,4.85-2.71
						s0.57-0.857,0.854-1.428c0.287-0.571,4.137,0,4.137,0s-0.143,1.46,0,3.297c0.142,1.839,0,3.551,0,3.551H412.569z"/>
					<path style="fill:#26253A;" d="M434.618,396.347c0,0,1.163-1.596,3.528-3.543c2.362-1.948,4.751-3.739,4.751-3.739
						s0.469-1.016,0.68-1.678c0.212-0.663,4.447-0.705,4.447-0.705s0.093,1.593,0.56,3.545c0.468,1.951,0.601,3.815,0.601,3.815
						L434.618,396.347z"/>
				</g>
				<path style="fill:#37377C;" d="M449.389,388.738c0-0.729-18.806-93.21-18.806-93.21l-13.017,0.732
					c0,0-0.045,21.438,2.466,31.664c2.511,10.229,19.493,60.815,19.493,60.815H449.389z"/>
				<path style="fill:#4F4FB7;" d="M446.772,294.615c0,0,1.611,17.256-1.267,29.996c-2.873,12.74-16.844,68.62-16.844,68.62h-8.63
					l9.448-80.536l-2.471-16.969L446.772,294.615z"/>
				<g>
					<path style="fill:#FDBA9F;" d="M419.376,265.302c0,0-3.11,17.966-4.355,19.247c-1.245,1.276-7.692,1.741-10.945,1.757
						c-3.248,0.018-20.68,0-20.68,0v-4.86c0,0,22.906-1.139,25.148-1.864c2.242-0.729,3.573-15.741,3.573-15.741L419.376,265.302z"
						/>
					<path style="fill:#FDBA9F;" d="M453.255,267.774c0,0,1.521,4.722,2.067,10.563c0.545,5.845,0.138,16.257-1.3,21.554
						c-1.438,5.293-4.18,12.052-4.908,14.975c-0.73,2.923-0.73,4.748-0.912,6.757c-0.185,2.01-1.771,3.47-2.166,3.105
						c-0.392-0.365-2.767-1.646-3.314-2.008c-0.546-0.366-1.096-1.463,0-4.021c1.095-2.556,2.192-3.47,2.923-5.844
						c0.731-2.372,3.071-25.566,3.179-28.854c0.109-3.288-2.39-14.972-2.39-14.972L453.255,267.774z"/>
					<path style="fill:#FDBA9F;" d="M438.249,253.148c0,0-2.194-0.469-2.556-2.845c-0.367-2.374,0-9.132,0-9.132l-0.045-1.626
						c0.087-0.439,0.136-0.894,0.136-1.36c0-0.592-0.083-1.326-0.222-1.872L435.53,235h-0.377c-1.028-2-3.217-3.613-5.761-3.613
						c-3.533,0-6.396,3.05-6.396,6.717c0,3.662,2.862,6.674,6.396,6.674c0.264,0,0.52-0.001,0.774-0.033
						c0.149,2.084,0.213,5.017-1.233,6.465c-2.012,2.007-6.847,2.31-6.847,2.31s3.028,4.052,5.665,4.934
						c2.637,0.88,4.651,0.552,7.392-0.877c2.738-1.431,5.164-3.925,5.164-3.925L438.249,253.148z"/>
				</g>
				<path style="fill:#8C8CEA;" d="M439.346,253.524c0,0,12.696,0.25,14.79,11.094c0.567,2.942,0.306,2.88,0.306,2.88l-8.792,1.619
					l1.123,25.498l-29.206,1.645v-25.476l-7.983-1.611c0,0-0.278-0.795-0.278-2.155c0-10.298,10.727-15.136,12.782-13.493
					c2.054,1.644,6.229,5.343,9.278,4.933C434.413,258.044,439.346,253.524,439.346,253.524z"/>
				<path style="fill:#26253A;" d="M431.096,226.798c-0.167,0-8.344,0.279-8.344,0.279c-2.347,0-4.249,1.617-4.249,3.962
					c0,2.343,1.902,3.961,4.249,3.961h7.417c0.703,0,1.354-0.043,1.939-0.345c0.553,0.723,1.025,1.612,1.377,2.516
					c0.15-0.151,0.343-0.177,0.588-0.1c1.42,0.454,0.728,2.907,0.483,3.937c-0.228,0.971-0.285,1.7,0.357,1.895
					c0.271-0.009,0.536,0.006,0.804,0.03c1.029-0.117,1.949-0.538,2.664-1.436c0.057-0.071,0.107-0.142,0.159-0.221
					c0.386-1.225,0.601-2.57,0.601-3.979C439.141,231.498,435.539,226.798,431.096,226.798z"/>
			</g>
			<g>
				<polygon style="fill:#FBB82C;" points="351,408.628 351,236.145 376.988,162.095 400.881,236.145 401.927,407.689 
					385.318,418.629 366.682,417.973 				"/>
				<rect x="367" y="244" style="fill:#FBD24F;" width="20" height="174"/>
				<polygon style="fill:#FFFFFF;" points="367.282,245.148 350.951,235.21 377.051,162.095 401.571,236.145 386.996,244.819 				
					"/>
				<polygon style="fill:#26253A;" points="366.273,191.12 376.81,159.065 387.653,191.592 376.81,196.85 				"/>
			</g>
		</g>
		<g>
			<g>
				<polygon style="fill:#FDBA9F;" points="244.041,414.351 243.435,402.175 248.477,402.38 248.273,414.523 				"/>
				<g>
					<path style="fill:#26253A;" d="M234.124,420.965c0,0,1.367-1.26,3.908-2.62c2.538-1.356,5.075-2.569,5.075-2.569
						s0.617-0.852,0.934-1.425c0.313-0.572,4.232,0.173,4.232,0.173s-0.209,1.485-0.139,3.372c0.072,1.888-0.146,3.633-0.146,3.633
						L234.124,420.965z"/>
					<path style="fill:#26253A;" d="M294.727,436.695c0,0,1.001-1.568,3.109-3.527c2.11-1.963,4.249-3.783,4.249-3.783
						s0.382-0.982,0.541-1.615c0.159-0.632,4.135-0.915,4.135-0.915s0.182,1.491,0.728,3.299c0.552,1.806,0.785,3.548,0.785,3.548
						L294.727,436.695z"/>
				</g>
				<polygon style="fill:#FDBA9F;" points="302.627,427.77 298.933,416.151 303.86,415.06 306.762,426.854 				"/>
				<g>
					<path style="fill:#37377C;" d="M273.538,317.941l-17.618-1.777l-15.291,53.082l-1.626,40.046l14.503,0.589
						c1.584-1.601,2.707-4.451,2.84-7.743c0.176-4.329-1.414-8.041-3.73-9.196c1.27-1.436,2.176-3.958,2.294-6.86
						c0.158-3.89-1.145-7.211-3.046-8.199c-0.018-0.04-0.031-0.085-0.045-0.124l0.602-3.426l15.662-32.51l1.411-2.282l4.963-21.562
						L273.538,317.941z"/>
					<path style="fill:#37377C;" d="M311.589,419.62c1.395-2.241,1.914-5.411,1.186-8.695c-1.232-5.575-5.587-9.353-9.725-8.439
						c-0.244,0.054-0.482,0.123-0.71,0.205c1.03-2.243,1.325-5.263,0.631-8.399c-0.997-4.508-3.739-7.935-6.729-8.833
						c-4.223-20.381-8.791-42.098-10.028-46.689c-2.45-9.096-5.867-20.369-5.867-20.369l-21.721,0.434l37.85,104.125L311.589,419.62
						z"/>
				</g>
				<path style="fill:#FDBA9F;" d="M258.615,294.828l-24.622-11.957c0,0-3.892-2.337-3.28-3.987
					c0.611-1.651,17.217-31.577,17.217-31.577l3.91,2.132c0,0-12.097,26.401-12.735,27.568c-0.636,1.169-0.327,2.03,2.322,3.127
					c2.651,1.099,17.534,6.173,17.534,6.173L258.615,294.828z"/>
				<path style="fill:#FBB82C;" d="M252.852,294.595l2.902-10.321c3.106,0.454,3.681,1.094,8.692,1.297l18.381,1.887
					c5.051,0.206,10.136,0.9,10.125,8.201l0.784,5.854l-8.779-0.355l-1.328,17.392c-9.451,0.059-20.188,0.608-29.149,0.057
					l2.481-21.542L252.852,294.595z"/>
				<path style="fill:#FDBA9F;" d="M276.058,288.743c0,0,0.257-10.732,0.104-14.299c0.056-0.286,0.078-0.577,0.091-0.877
					c0.136-3.343-2.668-6.169-6.254-6.315c-3.582-0.145-6.604,2.445-6.74,5.787c-0.135,3.342,2.741,6.174,6.322,6.318
					c0.487,0.021,0.515-0.032,1.503-0.089l-0.368,9.086c0,0,1.864,1.124,2.5,1.17C273.915,289.574,276.058,288.743,276.058,288.743z
					"/>
				<path style="fill:#26253A;" d="M274.143,284.938c-0.093-0.316,0.896-8.524-1.826-12.249c-4.575-6.261-8.897-1.011-8.897-1.011
					s0.732-3.379,1.615-4.714c1.405-2.116,4.485-5.426,11.423-4.622c6.938,0.806,11.909,2.292,14.395,14.065
					c2.193,10.391,2.021,8.881,2.021,8.881L274.143,284.938z"/>
				<g>
					<path style="fill:#FDBA9F;" d="M292.718,301.473c0,0,0.145,3.569,0.342,13.482c0.195,9.914-1.181,13.596-8.9,12.85
						c-7.721-0.742-26.914,0.437-26.914,0.437l0.192-4.72c0,0,28.104-2.327,28.923-5.012c0.819-2.687-0.459-17.314-0.459-17.314
						L292.718,301.473z"/>
					<polygon style="fill:#FDBA9F;" points="246.536,325.77 250.411,322.483 259.658,323.366 258.303,328.171 247.513,329.363 					
						"/>
				</g>
				<polygon style="fill:#FDBA9F;" points="253.281,238.878 255.279,243.549 251.016,251.238 247.766,248.383 249.557,238.753 				
					"/>
			</g>
			<g>
				<path style="fill:none;stroke:#26253A;stroke-miterlimit:10;stroke-dasharray:2,2;" d="M266.297,79.13
					c-38.42-30.389-94.101-23.889-124.491,14.531"/>
				<path style="fill:none;stroke:#26253A;stroke-miterlimit:10;stroke-dasharray:2,2;" d="M140.71,91.222
					c-24.835-19.643-58.76-18.054-75.85,3.552"/>
				<path style="fill:#4F4FB7;" d="M78.196,96.637c0,6.829-5.536,12.367-12.365,12.367c-6.832,0-12.369-5.538-12.369-12.367
					c0-6.83,5.538-12.366,12.369-12.366C72.661,84.271,78.196,89.807,78.196,96.637z"/>
				<path style="fill:none;stroke:#26253A;stroke-miterlimit:10;stroke-dasharray:2,2;" d="M266.424,247.472
					c-4.471-0.654-9.178-4.489-13.169-6.72c-7.218-4.038-13.784-7.809-17.207-15.677c-6.91-15.892-8.366-36.965,1.004-52.101
					c8.216-13.268,24.354-17.67,32.658-30.487c5.727-8.836,11.533-19.25,11.598-30.041c0.029-4.634-4.157-18.681-1.432-21.876"/>
				<path style="fill:#FBD24F;" d="M324.574,100.45l0.686-3.671c0.157-0.853-0.406-1.671-1.251-1.829l-1.147-0.215
					c-0.724-0.135-1.292-0.715-1.397-1.445c-0.083-0.554-0.199-1.104-0.35-1.636c-0.196-0.718,0.088-1.476,0.698-1.894l0.958-0.657
					c0.712-0.487,0.893-1.463,0.408-2.18l-2.115-3.079c-0.488-0.712-1.466-0.894-2.181-0.407l-0.956,0.657
					c-0.607,0.415-1.419,0.404-2.014-0.039c-0.447-0.328-0.915-0.631-1.403-0.911c-0.642-0.369-0.981-1.101-0.844-1.829l0.212-1.141
					c0.159-0.849-0.4-1.668-1.253-1.829l-3.668-0.686c-0.852-0.158-1.671,0.405-1.83,1.254l-0.213,1.141
					c-0.136,0.728-0.715,1.29-1.447,1.4c-0.553,0.085-1.102,0.2-1.639,0.345c-0.712,0.198-1.473-0.084-1.889-0.691l-0.658-0.959
					c-0.491-0.711-1.466-0.894-2.178-0.406l-3.084,2.109c-0.717,0.49-0.898,1.468-0.407,2.18l0.656,0.957
					c0.42,0.611,0.408,1.418-0.032,2.018c-0.333,0.441-0.637,0.914-0.914,1.4c-0.366,0.642-1.1,0.979-1.829,0.845l-1.138-0.214
					c-0.852-0.158-1.675,0.401-1.832,1.253l-0.686,3.671c-0.158,0.851,0.406,1.668,1.257,1.827l1.139,0.213
					c0.729,0.136,1.291,0.717,1.399,1.449c0.084,0.555,0.196,1.098,0.348,1.64c0.196,0.71-0.086,1.472-0.698,1.888l-0.956,0.655
					c-0.718,0.496-0.898,1.467-0.408,2.181l2.114,3.083c0.488,0.711,1.462,0.893,2.179,0.407l0.961-0.662
					c0.607-0.413,1.416-0.403,2.011,0.036c0.447,0.332,0.916,0.64,1.402,0.919c0.646,0.363,0.98,1.101,0.846,1.825l-0.214,1.142
					c-0.159,0.854,0.403,1.664,1.255,1.823l3.668,0.685c0.853,0.16,1.67-0.394,1.828-1.248l0.213-1.142
					c0.136-0.724,0.717-1.292,1.447-1.398c0.556-0.082,1.104-0.202,1.639-0.349c0.714-0.195,1.475,0.089,1.893,0.693l0.654,0.962
					c0.49,0.712,1.466,0.895,2.18,0.407l3.084-2.112c0.712-0.491,0.894-1.461,0.406-2.181l-0.657-0.958
					c-0.418-0.608-0.408-1.42,0.034-2.012c0.33-0.452,0.638-0.916,0.915-1.405c0.361-0.643,1.102-0.981,1.825-0.846l1.147,0.214
					C323.595,101.858,324.414,101.299,324.574,100.45z M306.671,103.832c-5.23-0.555-8.7-5.622-7.33-10.695
					c1.081-3.997,4.974-6.667,9.089-6.23c5.227,0.559,8.692,5.621,7.326,10.696C314.682,101.598,310.78,104.27,306.671,103.832z"/>
				<path style="fill:#4F4FB7;" d="M302.32,85.786l0.951-5.09c0.219-1.183-0.563-2.317-1.735-2.537l-1.588-0.297
					c-1.004-0.187-1.791-0.992-1.939-2.004c-0.114-0.768-0.276-1.531-0.483-2.268c-0.271-0.995,0.122-2.045,0.967-2.626l1.329-0.91
					c0.987-0.676,1.24-2.029,0.565-3.021l-2.932-4.269c-0.679-0.988-2.033-1.24-3.023-0.565l-1.326,0.911
					c-0.842,0.577-1.967,0.561-2.791-0.054c-0.621-0.456-1.269-0.875-1.947-1.264c-0.889-0.511-1.358-1.524-1.17-2.535l0.296-1.582
					c0.221-1.177-0.556-2.314-1.737-2.536l-5.087-0.95c-1.18-0.22-2.315,0.56-2.537,1.737l-0.294,1.582
					c-0.19,1.01-0.991,1.79-2.007,1.941c-0.768,0.118-1.528,0.277-2.272,0.478c-0.988,0.275-2.041-0.118-2.619-0.958l-0.912-1.329
					c-0.681-0.986-2.033-1.24-3.02-0.563L262.732,60c-0.994,0.679-1.246,2.035-0.565,3.022l0.911,1.327
					c0.581,0.848,0.565,1.968-0.046,2.799c-0.461,0.611-0.882,1.266-1.268,1.941c-0.506,0.889-1.523,1.357-2.534,1.17l-1.578-0.296
					c-1.18-0.22-2.321,0.556-2.539,1.737l-0.952,5.09c-0.22,1.179,0.563,2.313,1.741,2.532l1.581,0.296
					c1.01,0.188,1.788,0.994,1.939,2.009c0.117,0.77,0.273,1.521,0.482,2.273c0.271,0.985-0.119,2.041-0.969,2.618l-1.326,0.909
					c-0.995,0.687-1.245,2.034-0.565,3.024l2.932,4.275c0.678,0.986,2.028,1.237,3.021,0.564l1.332-0.918
					c0.843-0.571,1.964-0.558,2.788,0.051c0.621,0.46,1.271,0.887,1.944,1.273c0.894,0.503,1.358,1.527,1.173,2.53l-0.298,1.583
					c-0.22,1.185,0.562,2.308,1.741,2.528l5.086,0.95c1.182,0.221,2.314-0.546,2.533-1.73l0.297-1.582
					c0.186-1.004,0.994-1.792,2.006-1.938c0.77-0.116,1.53-0.281,2.272-0.485c0.99-0.269,2.044,0.124,2.624,0.961l0.907,1.335
					c0.679,0.986,2.031,1.24,3.022,0.565l4.275-2.928c0.988-0.682,1.24-2.026,0.564-3.024l-0.911-1.328
					c-0.58-0.844-0.565-1.969,0.048-2.79c0.459-0.625,0.884-1.269,1.268-1.946c0.502-0.892,1.529-1.36,2.532-1.174l1.59,0.298
					C300.961,87.74,302.099,86.963,302.32,85.786z M277.498,90.476c-7.251-0.769-12.063-7.796-10.162-14.829
					c1.497-5.541,6.894-9.244,12.601-8.638c7.246,0.775,12.051,7.793,10.157,14.83C288.604,87.378,283.195,91.083,277.498,90.476z"
					/>
				<path style="fill:#FBB82C;" d="M146.49,94.01c0,3.085-2.501,5.586-5.585,5.586c-3.085,0-5.586-2.501-5.586-5.586
					c0-3.085,2.501-5.586,5.586-5.586C143.989,88.424,146.49,90.925,146.49,94.01z"/>
			</g>
		</g>
		<g>
			<polygon style="fill:#8C8CEA;" points="389.16,137.605 393.642,87.57 432.917,119.837 			"/>
			<g>
				<path style="fill:#FBB82C;" d="M331.135,120.788c0.913-2.485,3.674-3.759,6.158-2.844l32.277,11.876
					c2.485,0.915,3.757,3.671,2.844,6.155l-5.851,15.903c-0.917,2.488-3.672,3.762-6.157,2.847l-16.004-5.889
					c-0.07,0.3-0.131,0.618-0.183,0.955c-0.444,2.902,3.293,9.727,2.727,10.544c0,0-6.165-6.868-8.275-10.371
					c-0.73-1.216-1.349-2.61-1.849-3.918l-8.693-3.198c-2.485-0.914-3.761-3.671-2.846-6.158L331.135,120.788z"/>
				<path style="fill:#F9D555;" d="M156.991,113.234c-1.111-3.024-4.47-4.575-7.495-3.461l-39.279,14.454
					c-3.024,1.112-4.572,4.466-3.461,7.49l7.12,19.353c1.115,3.028,4.468,4.578,7.493,3.465l19.475-7.167
					c0.085,0.365,0.16,0.752,0.223,1.162c0.541,3.532-4.008,11.838-3.319,12.832c0,0,7.503-8.357,10.071-12.621
					c0.887-1.479,1.641-3.177,2.25-4.768l10.579-3.893c3.025-1.111,4.576-4.467,3.462-7.493L156.991,113.234z"/>
			</g>
			<g>
				<path style="fill:#37377C;" d="M145.95,423.567c0,8.473-6.867,15.343-15.341,15.343c-8.476,0-15.346-6.87-15.346-15.343
					c0-8.474,6.87-15.341,15.346-15.341C139.083,408.227,145.95,415.094,145.95,423.567z"/>
				<polygon style="fill:#FBD24F;" points="96.248,419 115.296,381.969 135.396,419 				"/>
			</g>
		</g>
	</g>
</g>
<g id="Designed_by_Freepik">
	<g>
		<g id="XMLID_1_">
			<g id="XMLID_25_">
				<path id="XMLID_33_" style="fill:#1D262D;" d="M259.607,468.923c-0.432,0.443-0.803,0.932-1.107,1.453l-0.465-0.241
					c-0.068-0.297-0.35-0.502-0.66-0.466c-0.33,0.039-0.566,0.339-0.529,0.67c0.039,0.331,0.34,0.567,0.67,0.528
					c0.066-0.007,0.127-0.025,0.184-0.052l0.451,0.234c-0.25,0.554-0.432,1.139-0.539,1.743l0.748,0.132
					c0.229-1.306,0.85-2.507,1.793-3.473L259.607,468.923z"/>
				<path id="XMLID_32_" style="fill:#1D262D;" d="M265.096,466.621c-0.17,0-0.34,0.006-0.508,0.017l-0.074-0.626
					c0.188-0.149,0.295-0.389,0.266-0.645c-0.047-0.393-0.402-0.674-0.795-0.628c-0.395,0.046-0.676,0.402-0.629,0.796
					c0.031,0.254,0.189,0.461,0.404,0.563l0.074,0.624c-0.715,0.116-1.402,0.332-2.061,0.646l0.328,0.685
					c0.934-0.447,1.941-0.674,2.994-0.674c0.498,0,0.994,0.053,1.477,0.158l0.16-0.741
					C266.197,466.68,265.646,466.621,265.096,466.621z"/>
				<path id="XMLID_31_" style="fill:#1D262D;" d="M271.699,469.168c0.33-0.04,0.566-0.341,0.525-0.672
					c-0.041-0.331-0.342-0.566-0.672-0.525c-0.311,0.038-0.535,0.304-0.531,0.608l-0.416,0.363c-0.418-0.43-0.889-0.813-1.406-1.14
					l-0.404,0.642c1.135,0.715,2.02,1.727,2.563,2.925l0.691-0.313c-0.252-0.554-0.568-1.071-0.943-1.545l0.402-0.351
					C271.57,469.173,271.633,469.177,271.699,469.168z"/>
				<path id="XMLID_30_" style="fill:#1D262D;" d="M264.549,476.829c-0.385,0.023-0.775,0.035-1.156,0.035
					c-0.881,0-1.734-0.061-2.478-0.18c-0.391-0.062-0.846-0.154-1.272-0.292c1.047,1.861,3.07,3.125,5.389,3.125
					c2.855,0,5.264-1.916,5.949-4.503c-0.682,0.449-1.504,0.825-2.457,1.122C267.344,476.505,265.969,476.744,264.549,476.829z"/>
				<path id="XMLID_26_" style="fill:#1D262D;" d="M265.096,468.138c-3.352,0-6.08,2.666-6.08,5.943
					c0,0.425,0.047,0.849,0.137,1.261c0.676,0.483,2.707,0.891,5.35,0.731c2.879-0.174,5.297-0.958,6.672-2.159
					c-0.006-0.194-0.022-0.39-0.045-0.581C270.748,470.371,268.154,468.138,265.096,468.138z M262.938,474.652
					c-1.02,0-1.85-0.83-1.85-1.85c0-1.021,0.83-1.851,1.85-1.851s1.85,0.83,1.85,1.851
					C264.787,473.822,263.957,474.652,262.938,474.652z M267.674,473.744c-0.75,0-1.359-0.61-1.359-1.36s0.609-1.36,1.359-1.36
					s1.361,0.61,1.361,1.36S268.424,473.744,267.674,473.744z"/>
			</g>
			<path id="XMLID_23_" style="fill:#1D262D;" d="M281.1,470.005c-0.295-0.116-0.805-0.31-1.383-0.238
				c-0.551,0.069-0.844,0.341-0.844,1.007v0.866h2.229v1.717h-2.229v5.455h-1.932v-5.455h-1.338v-1.717h1.338v-0.889
				c0-1.68,0.897-2.782,2.568-2.782c0.642,0,1.158,0.121,1.59,0.308V470.005z"/>
			<path id="XMLID_21_" style="fill:#1D262D;" d="M285.803,473.336c-0.178-0.029-0.357-0.046-0.525-0.046
				c-0.896,0-1.51,0.548-1.51,1.613v3.908h-1.934v-7.172h1.873v0.784c0.451-0.673,1.141-0.977,2.021-0.977
				c0.414,0,0.848,0.128,1.094,0.337L285.803,473.336z"/>
			<path id="XMLID_17_" style="fill:#1D262D;" d="M293.471,475.215c0,0.222-0.016,0.488-0.037,0.651h-5.086
				c0.207,1.036,0.934,1.487,1.844,1.487c0.621,0,1.295-0.252,1.813-0.688l1.133,1.243c-0.814,0.748-1.85,1.089-3.057,1.089
				c-2.197,0-3.723-1.496-3.723-3.753c0-2.258,1.48-3.797,3.627-3.797C292.049,471.447,293.463,472.979,293.471,475.215z
				 M288.355,474.549h3.176c-0.178-0.918-0.732-1.436-1.563-1.436C289.059,473.112,288.525,473.66,288.355,474.549z"/>
			<path id="XMLID_10_" style="fill:#1D262D;" d="M301.123,475.215c0,0.222-0.016,0.488-0.037,0.651h-5.084
				c0.207,1.036,0.932,1.487,1.842,1.487c0.623,0,1.297-0.252,1.814-0.688l1.133,1.243c-0.814,0.748-1.852,1.089-3.059,1.089
				c-2.197,0-3.723-1.496-3.723-3.753c0-2.258,1.48-3.797,3.627-3.797C299.701,471.447,301.115,472.979,301.123,475.215z
				 M296.01,474.549h3.174c-0.178-0.918-0.732-1.436-1.561-1.436C296.713,473.112,296.18,473.66,296.01,474.549z"/>
			<path id="XMLID_7_" style="fill:#1D262D;" d="M309.469,475.222c0,2.154-1.494,3.775-3.471,3.775
				c-0.963,0-1.645-0.378-2.109-0.933v3.708h-1.926V471.64h1.889v0.792c0.467-0.585,1.154-0.984,2.139-0.984
				C307.975,471.447,309.469,473.068,309.469,475.222z M303.791,475.222c0,1.133,0.748,1.977,1.844,1.977
				c1.141,0,1.85-0.881,1.85-1.977c0-1.095-0.709-1.976-1.85-1.976C304.539,473.246,303.791,474.09,303.791,475.222z"/>
			<path id="XMLID_4_" style="fill:#1D262D;" d="M312.572,469.293c0,0.696-0.541,1.229-1.236,1.229
				c-0.695,0-1.228-0.533-1.228-1.229c0-0.695,0.533-1.243,1.228-1.243C312.031,468.05,312.572,468.598,312.572,469.293z
				 M312.313,478.811h-1.932v-7.172h1.932V478.811z"/>
			<path id="XMLID_2_" style="fill:#1D262D;" d="M315.537,474.193l2.701-2.554h2.369l-3.479,3.375l3.5,3.797h-2.375l-2.717-2.901
				v2.901h-1.932v-10.658h1.932V474.193z"/>
		</g>
		<g>
			<path style="fill:#1D262D;" d="M183.916,478.747v-1.055c-0.527,0.718-1.393,1.23-2.389,1.23c-1.846,0-3.148-1.406-3.148-3.706
				c0-2.256,1.289-3.721,3.148-3.721c0.953,0,1.816,0.469,2.389,1.245v-3.765h1.098v9.771H183.916z M183.916,476.828v-3.208
				c-0.397-0.615-1.246-1.143-2.125-1.143c-1.42,0-2.27,1.172-2.27,2.739c0,1.567,0.85,2.725,2.27,2.725
				C182.67,477.941,183.519,477.443,183.916,476.828z"/>
			<path style="fill:#1D262D;" d="M186.435,475.202c0-2.051,1.465-3.706,3.486-3.706c2.139,0,3.396,1.67,3.396,3.794v0.278h-5.727
				c0.088,1.333,1.025,2.446,2.549,2.446c0.807,0,1.627-0.322,2.182-0.893l0.527,0.718c-0.703,0.703-1.654,1.084-2.811,1.084
				C187.943,478.923,186.435,477.414,186.435,475.202z M189.906,472.404c-1.508,0-2.256,1.274-2.314,2.358h4.645
				C192.221,473.708,191.518,472.404,189.906,472.404z"/>
			<path style="fill:#1D262D;" d="M194.109,477.81l0.572-0.791c0.469,0.542,1.361,1.011,2.328,1.011c1.084,0,1.67-0.513,1.67-1.216
				c0-1.714-4.379-0.659-4.379-3.281c0-1.099,0.951-2.036,2.637-2.036c1.201,0,2.051,0.454,2.621,1.025l-0.512,0.762
				c-0.426-0.513-1.201-0.894-2.109-0.894c-0.967,0-1.568,0.483-1.568,1.113c0,1.553,4.381,0.527,4.381,3.281
				c0,1.186-0.953,2.139-2.783,2.139C195.809,478.923,194.828,478.571,194.109,477.81z"/>
			<path style="fill:#1D262D;" d="M200.98,469.929c0-0.41,0.336-0.747,0.732-0.747c0.41,0,0.746,0.337,0.746,0.747
				c0,0.41-0.336,0.732-0.746,0.732C201.316,470.661,200.98,470.339,200.98,469.929z M201.17,478.747v-7.075h1.1v7.075H201.17z"/>
			<path style="fill:#1D262D;" d="M204.086,480.564l0.555-0.82c0.586,0.703,1.289,0.967,2.301,0.967c1.172,0,2.27-0.571,2.27-2.124
				v-1.011c-0.512,0.718-1.377,1.26-2.373,1.26c-1.846,0-3.148-1.377-3.148-3.662c0-2.271,1.289-3.677,3.148-3.677
				c0.953,0,1.803,0.469,2.373,1.245v-1.069h1.1v6.87c0,2.344-1.641,3.076-3.369,3.076
				C205.74,481.618,204.92,481.383,204.086,480.564z M209.211,476.711v-3.091c-0.381-0.615-1.23-1.143-2.109-1.143
				c-1.42,0-2.27,1.128-2.27,2.695c0,1.553,0.85,2.695,2.27,2.695C207.98,477.868,208.83,477.326,209.211,476.711z"/>
			<path style="fill:#1D262D;" d="M216.916,478.747v-4.629c0-1.245-0.629-1.641-1.582-1.641c-0.863,0-1.684,0.527-2.094,1.099v5.171
				h-1.1v-7.075h1.1v1.025c0.498-0.586,1.465-1.201,2.52-1.201c1.479,0,2.256,0.747,2.256,2.285v4.966H216.916z"/>
			<path style="fill:#1D262D;" d="M219.435,475.202c0-2.051,1.465-3.706,3.486-3.706c2.139,0,3.398,1.67,3.398,3.794v0.278h-5.727
				c0.088,1.333,1.023,2.446,2.547,2.446c0.807,0,1.627-0.322,2.184-0.893l0.527,0.718c-0.703,0.703-1.656,1.084-2.813,1.084
				C220.945,478.923,219.435,477.414,219.435,475.202z M222.906,472.404c-1.508,0-2.256,1.274-2.313,2.358h4.643
				C225.221,473.708,224.518,472.404,222.906,472.404z"/>
			<path style="fill:#1D262D;" d="M232.853,478.747v-1.055c-0.527,0.718-1.393,1.23-2.389,1.23c-1.846,0-3.148-1.406-3.148-3.706
				c0-2.256,1.289-3.721,3.148-3.721c0.953,0,1.816,0.469,2.389,1.245v-3.765h1.098v9.771H232.853z M232.853,476.828v-3.208
				c-0.396-0.615-1.246-1.143-2.125-1.143c-1.42,0-2.269,1.172-2.269,2.739c0,1.567,0.85,2.725,2.269,2.725
				C231.607,477.941,232.457,477.443,232.853,476.828z"/>
			<path style="fill:#1D262D;" d="M239.196,478.747v-9.771h1.098v3.765c0.572-0.776,1.422-1.245,2.389-1.245
				c1.846,0,3.149,1.465,3.149,3.721c0,2.3-1.303,3.706-3.149,3.706c-0.996,0-1.861-0.513-2.389-1.23v1.055H239.196z
				 M242.403,477.941c1.436,0,2.285-1.157,2.285-2.725c0-1.567-0.85-2.739-2.285-2.739c-0.863,0-1.729,0.527-2.109,1.143v3.208
				C240.674,477.443,241.54,477.941,242.403,477.941z"/>
			<path style="fill:#1D262D;" d="M247.032,480.52c0.162,0.073,0.426,0.117,0.602,0.117c0.482,0,0.805-0.161,1.055-0.747
				l0.469-1.069l-2.959-7.148h1.186l2.361,5.801l2.341-5.801h1.201l-3.543,8.511c-0.428,1.024-1.145,1.421-2.082,1.436
				c-0.234,0-0.602-0.044-0.807-0.104L247.032,480.52z"/>
		</g>
	</g>
</g>
</svg>
